# xmcd CD database file generated by Grip 2.96
# 
# Track frame offsets:
#       150
#       9170
#       16982
#       29925
#       45246
#       63218
#       77677
#       89145
#       104060
#       117957
#       133135
# 
# Disc length: 1957 seconds
# 
# Revision: 0
# Processed by: cddbd v1.4PL0 Copyright (c) Steve Scherf et al.
# Submitted via: Grip 2.96
# 
DISCID=8e07a30b
DTITLE=Blue And Lonesome - Another Song
DYEAR=1900
DGENRE=
TTITLE0=Straight Talkin'
TTITLE1=Blue Train
TTITLE2=A Few More Years
TTITLE3=Sarah
TTITLE4=Before I Met You
TTITLE5=Another Song, Another Drink]
TTITLE6=Preach the Gospel
TTITLE7=Rosie Bokay
TTITLE8=Old Rough Lumber Mill
TTITLE9=Sad Wind Sighs
TTITLE10=I'll Never Shed Another Tear
EXTD=
EXTT0=
EXTT1=
EXTT2=
EXTT3=
EXTT4=
EXTT5=
EXTT6=
EXTT7=
EXTT8=
EXTT9=
EXTT10=
PLAYORDER=
